<?xml version="1.0" encoding="utf-8"?>
<!-- Generator: Adobe Illustrator 26.0.1, SVG Export Plug-In . SVG Version: 6.00 Build 0)  -->
<svg version="1.1" id="Layer_1" xmlns="http://www.w3.org/2000/svg" xmlns:xlink="http://www.w3.org/1999/xlink" x="0px" y="0px"
	 viewBox="0 0 220 50" style="enable-background:new 0 0 220 50;" xml:space="preserve">
<style type="text/css">
	.st0{enable-background:new    ;}
	.st1{fill:#273F4F;}
	.st2{opacity:0.8;enable-background:new    ;}
	.st3{fill:#447D9B;}
	.st4{fill:#467D9B;}
	.st5{fill:#EE7649;}
</style>
<g>
	<g class="st0">
		<path class="st1" d="M49.8,26.8v-14H54l2.5,9.5l2.5-9.5h4.2v14h-2.6v-11l-2.8,11h-2.7l-2.8-11v11H49.8z"/>
		<path class="st1" d="M78.7,26.8h-3.1l-1.2-3.2h-5.6l-1.2,3.2h-3l5.4-14h3L78.7,26.8z M73.5,21.2l-1.9-5.2l-1.9,5.2H73.5z"/>
		<path class="st1" d="M80.3,26.8V12.9h2.8v11.5h7v2.4H80.3z"/>
		<path class="st1" d="M92.2,26.8V12.9H95v11.5h7v2.4H92.2z"/>
		<path class="st1" d="M103.5,19.9c0-1.4,0.2-2.6,0.6-3.6c0.3-0.7,0.8-1.4,1.3-1.9c0.5-0.6,1.2-1,1.8-1.3c0.9-0.4,1.9-0.6,3-0.6
			c2.1,0,3.7,0.6,4.9,1.9c1.2,1.3,1.9,3.1,1.9,5.3c0,2.3-0.6,4-1.8,5.3c-1.2,1.3-2.9,1.9-4.9,1.9c-2.1,0-3.7-0.6-5-1.9
			C104.1,23.8,103.5,22.1,103.5,19.9z M106.4,19.8c0,1.6,0.4,2.8,1.1,3.6c0.7,0.8,1.7,1.2,2.8,1.2s2-0.4,2.8-1.2
			c0.7-0.8,1.1-2,1.1-3.6c0-1.6-0.4-2.8-1.1-3.6c-0.7-0.8-1.6-1.2-2.8-1.2c-1.2,0-2.1,0.4-2.8,1.2C106.8,17,106.4,18.2,106.4,19.8z"
			/>
		<path class="st1" d="M119.2,12.8h2.8v7.6c0,1.2,0,2,0.1,2.3c0.1,0.6,0.4,1,0.9,1.4c0.5,0.3,1.1,0.5,1.9,0.5c0.8,0,1.4-0.2,1.8-0.5
			c0.4-0.3,0.7-0.7,0.7-1.2c0.1-0.5,0.1-1.3,0.1-2.4v-7.7h2.8v7.3c0,1.7-0.1,2.9-0.2,3.6s-0.4,1.3-0.8,1.8c-0.4,0.5-1,0.9-1.6,1.1
			c-0.7,0.3-1.6,0.4-2.7,0.4c-1.3,0-2.3-0.2-3-0.5c-0.7-0.3-1.2-0.7-1.6-1.2c-0.4-0.5-0.7-1-0.8-1.5c-0.2-0.8-0.3-2-0.3-3.5V12.8z"
			/>
		<path class="st1" d="M133.4,26.8V12.9h2.8v11.5h7v2.4H133.4z"/>
		<path class="st1" d="M145.2,26.8v-14h2.8v14H145.2z"/>
		<path class="st1" d="M150.7,26.8v-14h2.7l5.7,9.3v-9.3h2.6v14H159l-5.6-9.1v9.1H150.7z"/>
		<path class="st1" d="M164.2,19.9c0-1.4,0.2-2.6,0.6-3.6c0.3-0.7,0.8-1.4,1.3-1.9c0.5-0.6,1.2-1,1.8-1.3c0.9-0.4,1.9-0.6,3-0.6
			c2.1,0,3.7,0.6,4.9,1.9c1.2,1.3,1.9,3.1,1.9,5.3c0,2.3-0.6,4-1.8,5.3c-1.2,1.3-2.9,1.9-4.9,1.9c-2.1,0-3.7-0.6-5-1.9
			C164.9,23.8,164.2,22.1,164.2,19.9z M167.2,19.8c0,1.6,0.4,2.8,1.1,3.6c0.7,0.8,1.7,1.2,2.8,1.2s2-0.4,2.8-1.2
			c0.7-0.8,1.1-2,1.1-3.6c0-1.6-0.4-2.8-1.1-3.6c-0.7-0.8-1.6-1.2-2.8-1.2s-2.1,0.4-2.8,1.2C167.5,17,167.2,18.2,167.2,19.8z"/>
		<path class="st1" d="M183.6,26.8l-5-14h3.1l3.5,10.3l3.4-10.3h3l-5,14H183.6z"/>
		<path class="st1" d="M204.2,26.8h-3.1l-1.2-3.2h-5.6l-1.2,3.2h-3l5.4-14h3L204.2,26.8z M199,21.2l-1.9-5.2l-1.9,5.2H199z"/>
	</g>
	<g class="st2">
		<path class="st3" d="M49.8,37.2v-5.7h4.1v0.7h-3.4v1.8h3.2v0.7h-3.2v1.9h3.5v0.7H49.8z"/>
		<path class="st3" d="M55.1,37.2v-5.7h1.1l1.4,4.1c0.1,0.4,0.2,0.7,0.3,0.8c0.1-0.2,0.2-0.5,0.3-0.9l1.4-4h1v5.7h-0.7v-4.8
			l-1.7,4.8h-0.7l-1.7-4.9v4.9H55.1z"/>
		<path class="st3" d="M61.8,37.2v-5.7h2.1c0.4,0,0.8,0.1,1.1,0.2s0.5,0.3,0.6,0.5s0.2,0.5,0.2,0.8c0,0.2-0.1,0.5-0.2,0.7
			S65.3,34,65,34.2c0.3,0.1,0.6,0.3,0.8,0.5s0.3,0.5,0.3,0.9c0,0.3-0.1,0.5-0.2,0.7s-0.3,0.4-0.4,0.5s-0.4,0.2-0.6,0.3
			s-0.6,0.1-0.9,0.1H61.8z M62.5,33.9h1.2c0.3,0,0.6,0,0.7-0.1c0.2-0.1,0.3-0.2,0.4-0.3s0.1-0.3,0.1-0.5c0-0.2,0-0.4-0.1-0.5
			s-0.2-0.2-0.4-0.3s-0.5-0.1-0.9-0.1h-1.1V33.9z M62.5,36.5h1.4c0.2,0,0.4,0,0.5,0c0.2,0,0.3-0.1,0.4-0.2s0.2-0.2,0.3-0.3
			s0.1-0.3,0.1-0.5c0-0.2-0.1-0.4-0.2-0.6s-0.3-0.3-0.5-0.3s-0.5-0.1-0.8-0.1h-1.3V36.5z"/>
		<path class="st3" d="M67.1,37.2v-5.7h4.1v0.7h-3.4v1.8h3.2v0.7h-3.2v1.9h3.5v0.7H67.1z"/>
		<path class="st3" d="M72.5,37.2v-5.7h2c0.4,0,0.8,0,1,0.1c0.3,0.1,0.6,0.2,0.8,0.4c0.3,0.3,0.5,0.6,0.7,1s0.2,0.9,0.2,1.4
			c0,0.4-0.1,0.8-0.2,1.2s-0.2,0.6-0.4,0.8s-0.3,0.4-0.5,0.5s-0.4,0.2-0.7,0.3s-0.6,0.1-0.9,0.1H72.5z M73.2,36.5h1.2
			c0.4,0,0.7,0,0.9-0.1s0.4-0.2,0.5-0.3c0.2-0.2,0.3-0.4,0.4-0.7s0.2-0.7,0.2-1.1c0-0.6-0.1-1.1-0.3-1.4s-0.4-0.5-0.7-0.6
			c-0.2-0.1-0.5-0.1-1-0.1h-1.2V36.5z"/>
		<path class="st3" d="M78.2,37.2v-5.7h2c0.4,0,0.8,0,1,0.1c0.3,0.1,0.6,0.2,0.8,0.4c0.3,0.3,0.5,0.6,0.7,1s0.2,0.9,0.2,1.4
			c0,0.4-0.1,0.8-0.2,1.2s-0.2,0.6-0.4,0.8s-0.3,0.4-0.5,0.5s-0.4,0.2-0.7,0.3s-0.6,0.1-0.9,0.1H78.2z M79,36.5h1.2
			c0.4,0,0.7,0,0.9-0.1s0.4-0.2,0.5-0.3c0.2-0.2,0.3-0.4,0.4-0.7s0.2-0.7,0.2-1.1c0-0.6-0.1-1.1-0.3-1.4s-0.4-0.5-0.7-0.6
			c-0.2-0.1-0.5-0.1-1-0.1H79V36.5z"/>
		<path class="st3" d="M84,37.2v-5.7h4.1v0.7h-3.4v1.8H88v0.7h-3.2v1.9h3.5v0.7H84z"/>
		<path class="st3" d="M89.3,37.2v-5.7h2c0.4,0,0.8,0,1,0.1c0.3,0.1,0.6,0.2,0.8,0.4c0.3,0.3,0.5,0.6,0.7,1s0.2,0.9,0.2,1.4
			c0,0.4-0.1,0.8-0.2,1.2s-0.2,0.6-0.4,0.8s-0.3,0.4-0.5,0.5s-0.4,0.2-0.7,0.3s-0.6,0.1-0.9,0.1H89.3z M90.1,36.5h1.2
			c0.4,0,0.7,0,0.9-0.1s0.4-0.2,0.5-0.3c0.2-0.2,0.3-0.4,0.4-0.7s0.2-0.7,0.2-1.1c0-0.6-0.1-1.1-0.3-1.4s-0.4-0.5-0.7-0.6
			c-0.2-0.1-0.5-0.1-1-0.1h-1.2V36.5z"/>
		<path class="st3" d="M97.1,35.4l0.7-0.1c0,0.3,0.1,0.5,0.2,0.7s0.3,0.3,0.6,0.4s0.6,0.2,0.9,0.2c0.3,0,0.5,0,0.8-0.1
			s0.4-0.2,0.5-0.4s0.2-0.3,0.2-0.5c0-0.2-0.1-0.3-0.2-0.5s-0.3-0.2-0.5-0.3c-0.2-0.1-0.5-0.2-1-0.3s-0.9-0.2-1.1-0.4
			c-0.3-0.1-0.5-0.3-0.6-0.5s-0.2-0.5-0.2-0.7c0-0.3,0.1-0.6,0.2-0.8s0.4-0.4,0.7-0.6s0.7-0.2,1.1-0.2c0.4,0,0.8,0.1,1.1,0.2
			s0.6,0.3,0.7,0.6s0.3,0.6,0.3,0.9l-0.7,0.1c0-0.4-0.2-0.6-0.4-0.8s-0.6-0.3-1-0.3c-0.5,0-0.8,0.1-1,0.3S98,32.7,98,32.9
			c0,0.2,0.1,0.4,0.2,0.5c0.1,0.1,0.5,0.3,1.1,0.4s1,0.3,1.3,0.4c0.3,0.2,0.6,0.3,0.7,0.6s0.2,0.5,0.2,0.8c0,0.3-0.1,0.6-0.3,0.9
			s-0.4,0.5-0.8,0.6s-0.7,0.2-1.1,0.2c-0.5,0-1-0.1-1.3-0.2s-0.6-0.4-0.8-0.7S97.1,35.7,97.1,35.4z"/>
		<path class="st3" d="M104.3,37.2v-2.4l-2.2-3.3h0.9l1.1,1.7c0.2,0.3,0.4,0.6,0.6,1c0.2-0.3,0.4-0.6,0.6-1l1.1-1.7h0.9l-2.3,3.3
			v2.4H104.3z"/>
		<path class="st3" d="M107.8,35.4l0.7-0.1c0,0.3,0.1,0.5,0.2,0.7s0.3,0.3,0.6,0.4s0.6,0.2,0.9,0.2c0.3,0,0.5,0,0.8-0.1
			s0.4-0.2,0.5-0.4s0.2-0.3,0.2-0.5c0-0.2-0.1-0.3-0.2-0.5s-0.3-0.2-0.5-0.3c-0.2-0.1-0.5-0.2-1-0.3s-0.9-0.2-1.1-0.4
			c-0.3-0.1-0.5-0.3-0.6-0.5S108,33.2,108,33c0-0.3,0.1-0.6,0.2-0.8s0.4-0.4,0.7-0.6s0.7-0.2,1.1-0.2c0.4,0,0.8,0.1,1.1,0.2
			s0.6,0.3,0.7,0.6s0.3,0.6,0.3,0.9l-0.7,0.1c0-0.4-0.2-0.6-0.4-0.8s-0.6-0.3-1-0.3c-0.5,0-0.8,0.1-1,0.3s-0.3,0.4-0.3,0.6
			c0,0.2,0.1,0.4,0.2,0.5c0.1,0.1,0.5,0.3,1.1,0.4s1,0.3,1.3,0.4c0.3,0.2,0.6,0.3,0.7,0.6s0.2,0.5,0.2,0.8c0,0.3-0.1,0.6-0.3,0.9
			s-0.4,0.5-0.8,0.6s-0.7,0.2-1.1,0.2c-0.5,0-1-0.1-1.3-0.2s-0.6-0.4-0.8-0.7S107.8,35.7,107.8,35.4z"/>
		<path class="st3" d="M114.8,37.2v-5.1h-1.9v-0.7h4.5v0.7h-1.9v5.1H114.8z"/>
		<path class="st3" d="M118.3,37.2v-5.7h4.1v0.7H119v1.8h3.2v0.7H119v1.9h3.5v0.7H118.3z"/>
		<path class="st3" d="M123.6,37.2v-5.7h1.1l1.4,4.1c0.1,0.4,0.2,0.7,0.3,0.8c0.1-0.2,0.2-0.5,0.3-0.9l1.4-4h1v5.7h-0.7v-4.8
			l-1.7,4.8h-0.7l-1.7-4.9v4.9H123.6z"/>
		<path class="st3" d="M130,35.4l0.7-0.1c0,0.3,0.1,0.5,0.2,0.7s0.3,0.3,0.6,0.4s0.6,0.2,0.9,0.2c0.3,0,0.5,0,0.8-0.1
			s0.4-0.2,0.5-0.4s0.2-0.3,0.2-0.5c0-0.2-0.1-0.3-0.2-0.5s-0.3-0.2-0.5-0.3c-0.2-0.1-0.5-0.2-1-0.3s-0.9-0.2-1.1-0.4
			c-0.3-0.1-0.5-0.3-0.6-0.5s-0.2-0.5-0.2-0.7c0-0.3,0.1-0.6,0.2-0.8s0.4-0.4,0.7-0.6s0.7-0.2,1.1-0.2c0.4,0,0.8,0.1,1.1,0.2
			s0.6,0.3,0.7,0.6s0.3,0.6,0.3,0.9l-0.7,0.1c0-0.4-0.2-0.6-0.4-0.8s-0.6-0.3-1-0.3c-0.5,0-0.8,0.1-1,0.3s-0.3,0.4-0.3,0.6
			c0,0.2,0.1,0.4,0.2,0.5c0.1,0.1,0.5,0.3,1.1,0.4s1,0.3,1.3,0.4c0.3,0.2,0.6,0.3,0.7,0.6s0.2,0.5,0.2,0.8c0,0.3-0.1,0.6-0.3,0.9
			s-0.4,0.5-0.8,0.6s-0.7,0.2-1.1,0.2c-0.5,0-1-0.1-1.3-0.2s-0.6-0.4-0.8-0.7S130,35.7,130,35.4z"/>
		<path class="st3" d="M141,36.5c-0.2,0.3-0.5,0.5-0.8,0.6s-0.6,0.2-0.9,0.2c-0.6,0-1.1-0.2-1.4-0.6c-0.3-0.3-0.4-0.7-0.4-1.1
			c0-0.4,0.1-0.7,0.3-1s0.6-0.5,1-0.8c-0.3-0.3-0.4-0.5-0.5-0.7s-0.1-0.4-0.1-0.5c0-0.3,0.1-0.6,0.4-0.9s0.6-0.4,1-0.4
			c0.4,0,0.7,0.1,1,0.4s0.4,0.5,0.4,0.9c0,0.5-0.4,1-1.1,1.4l1,1.3c0.1-0.2,0.2-0.5,0.3-0.8l0.7,0.2c-0.1,0.5-0.3,0.9-0.5,1.2
			c0.3,0.3,0.6,0.6,0.9,0.9l-0.5,0.6C141.6,37.2,141.3,36.9,141,36.5z M140.5,36l-1.3-1.6c-0.4,0.2-0.6,0.4-0.8,0.6
			s-0.2,0.4-0.2,0.6c0,0.2,0.1,0.5,0.3,0.7s0.4,0.4,0.8,0.4c0.2,0,0.4-0.1,0.7-0.2S140.4,36.2,140.5,36z M139.6,33.5
			c0.3-0.2,0.5-0.3,0.6-0.5s0.1-0.3,0.1-0.4c0-0.2-0.1-0.4-0.2-0.5s-0.3-0.2-0.5-0.2c-0.2,0-0.3,0.1-0.5,0.2s-0.2,0.3-0.2,0.4
			c0,0.1,0,0.2,0.1,0.3s0.1,0.2,0.2,0.3L139.6,33.5z"/>
		<path class="st3" d="M145.5,37.2v-5.7h0.8v5.7H145.5z"/>
		<path class="st3" d="M147.2,35.1c0-0.8,0.2-1.3,0.6-1.7c0.4-0.3,0.8-0.5,1.3-0.5c0.6,0,1,0.2,1.4,0.6s0.5,0.9,0.5,1.5
			c0,0.5-0.1,1-0.2,1.3s-0.4,0.5-0.7,0.7s-0.6,0.3-1,0.3c-0.6,0-1.1-0.2-1.4-0.6S147.2,35.8,147.2,35.1z M148,35.1
			c0,0.5,0.1,0.9,0.3,1.2s0.5,0.4,0.9,0.4c0.3,0,0.6-0.1,0.9-0.4s0.3-0.7,0.3-1.2c0-0.5-0.1-0.9-0.3-1.2s-0.5-0.4-0.9-0.4
			c-0.4,0-0.6,0.1-0.9,0.4S148,34.6,148,35.1z"/>
		<path class="st3" d="M153.5,37.2v-5.1h-1.9v-0.7h4.5v0.7h-1.9v5.1H153.5z"/>
		<path class="st3" d="M158.7,35.4l0.7-0.1c0,0.3,0.1,0.5,0.2,0.7s0.3,0.3,0.6,0.4s0.6,0.2,0.9,0.2c0.3,0,0.5,0,0.8-0.1
			s0.4-0.2,0.5-0.4s0.2-0.3,0.2-0.5c0-0.2-0.1-0.3-0.2-0.5s-0.3-0.2-0.5-0.3c-0.2-0.1-0.5-0.2-1-0.3s-0.9-0.2-1.1-0.4
			c-0.3-0.1-0.5-0.3-0.6-0.5S159,33.2,159,33c0-0.3,0.1-0.6,0.2-0.8s0.4-0.4,0.7-0.6s0.7-0.2,1.1-0.2c0.4,0,0.8,0.1,1.1,0.2
			s0.6,0.3,0.7,0.6s0.3,0.6,0.3,0.9l-0.7,0.1c0-0.4-0.2-0.6-0.4-0.8s-0.6-0.3-1-0.3c-0.5,0-0.8,0.1-1,0.3s-0.3,0.4-0.3,0.6
			c0,0.2,0.1,0.4,0.2,0.5c0.1,0.1,0.5,0.3,1.1,0.4s1,0.3,1.3,0.4c0.3,0.2,0.6,0.3,0.7,0.6s0.2,0.5,0.2,0.8c0,0.3-0.1,0.6-0.3,0.9
			s-0.4,0.5-0.8,0.6s-0.7,0.2-1.1,0.2c-0.5,0-1-0.1-1.3-0.2s-0.6-0.4-0.8-0.7S158.7,35.7,158.7,35.4z"/>
		<path class="st3" d="M164.1,34.4c0-1,0.3-1.7,0.8-2.2s1.2-0.8,2-0.8c0.5,0,1,0.1,1.4,0.4s0.7,0.6,1,1.1s0.3,1,0.3,1.5
			c0,0.6-0.1,1.1-0.4,1.6s-0.6,0.8-1,1s-0.9,0.4-1.4,0.4c-0.5,0-1-0.1-1.4-0.4s-0.7-0.6-1-1.1S164.1,34.9,164.1,34.4z M164.9,34.4
			c0,0.7,0.2,1.2,0.6,1.6s0.8,0.6,1.4,0.6c0.6,0,1-0.2,1.4-0.6s0.6-1,0.6-1.7c0-0.5-0.1-0.9-0.2-1.2s-0.4-0.6-0.7-0.8
			s-0.6-0.3-1-0.3c-0.5,0-1,0.2-1.4,0.6S164.9,33.6,164.9,34.4z"/>
		<path class="st3" d="M170.5,37.2v-5.7h0.8v5.1h2.8v0.7H170.5z"/>
		<path class="st3" d="M178.8,31.5h0.8v3.3c0,0.6-0.1,1-0.2,1.4s-0.4,0.6-0.7,0.8s-0.8,0.3-1.3,0.3c-0.5,0-1-0.1-1.3-0.3
			s-0.6-0.5-0.7-0.8s-0.2-0.8-0.2-1.4v-3.3h0.8v3.3c0,0.5,0,0.9,0.1,1.1s0.3,0.4,0.5,0.5s0.5,0.2,0.8,0.2c0.6,0,1-0.1,1.2-0.4
			s0.4-0.7,0.4-1.5V31.5z"/>
		<path class="st3" d="M182.2,37.2v-5.1h-1.9v-0.7h4.5v0.7H183v5.1H182.2z"/>
		<path class="st3" d="M185.8,37.2v-5.7h0.8v5.7H185.8z"/>
		<path class="st3" d="M187.7,34.4c0-1,0.3-1.7,0.8-2.2s1.2-0.8,2-0.8c0.5,0,1,0.1,1.4,0.4s0.7,0.6,1,1.1s0.3,1,0.3,1.5
			c0,0.6-0.1,1.1-0.4,1.6s-0.6,0.8-1,1s-0.9,0.4-1.4,0.4c-0.5,0-1-0.1-1.4-0.4s-0.7-0.6-1-1.1S187.7,34.9,187.7,34.4z M188.4,34.4
			c0,0.7,0.2,1.2,0.6,1.6s0.8,0.6,1.4,0.6c0.6,0,1-0.2,1.4-0.6s0.6-1,0.6-1.7c0-0.5-0.1-0.9-0.2-1.2s-0.4-0.6-0.7-0.8
			s-0.6-0.3-1-0.3c-0.5,0-1,0.2-1.4,0.6S188.4,33.6,188.4,34.4z"/>
		<path class="st3" d="M194.1,37.2v-5.7h0.8l3,4.5v-4.5h0.7v5.7h-0.8l-3-4.5v4.5H194.1z"/>
		<path class="st3" d="M199.6,35.4l0.7-0.1c0,0.3,0.1,0.5,0.2,0.7s0.3,0.3,0.6,0.4s0.6,0.2,0.9,0.2c0.3,0,0.5,0,0.8-0.1
			s0.4-0.2,0.5-0.4s0.2-0.3,0.2-0.5c0-0.2-0.1-0.3-0.2-0.5s-0.3-0.2-0.5-0.3c-0.2-0.1-0.5-0.2-1-0.3s-0.9-0.2-1.1-0.4
			c-0.3-0.1-0.5-0.3-0.6-0.5s-0.2-0.5-0.2-0.7c0-0.3,0.1-0.6,0.2-0.8s0.4-0.4,0.7-0.6s0.7-0.2,1.1-0.2c0.4,0,0.8,0.1,1.1,0.2
			s0.6,0.3,0.7,0.6s0.3,0.6,0.3,0.9l-0.7,0.1c0-0.4-0.2-0.6-0.4-0.8s-0.6-0.3-1-0.3c-0.5,0-0.8,0.1-1,0.3s-0.3,0.4-0.3,0.6
			c0,0.2,0.1,0.4,0.2,0.5c0.1,0.1,0.5,0.3,1.1,0.4s1,0.3,1.3,0.4c0.3,0.2,0.6,0.3,0.7,0.6s0.2,0.5,0.2,0.8c0,0.3-0.1,0.6-0.3,0.9
			s-0.4,0.5-0.8,0.6s-0.7,0.2-1.1,0.2c-0.5,0-1-0.1-1.3-0.2s-0.6-0.4-0.8-0.7S199.6,35.7,199.6,35.4z"/>
	</g>
	<g>
		<g>
			<path class="st4" d="M30.5,12.9l10.4,6V31l-10.4,6L20,31V19L30.5,12.9 M30.5,8.1l-14.6,8.5v16.9l14.6,8.5l14.6-8.5V16.5L30.5,8.1
				L30.5,8.1z"/>
		</g>
		<g>
			<circle class="st5" cx="30.5" cy="25" r="5.2"/>
		</g>
	</g>
</g>
</svg>
