<svg xmlns="http://www.w3.org/2000/svg" viewBox="0 0 510.17 1041.98"><g id="Layer_2" data-name="Layer 2"><g id="Layer_1-2" data-name="Layer 1"><path d="M44.53,896.79c-3.59-12.82-8.45-26.46-11.15-40.51-10.68-55.6-2.33-108.89,21.67-159.83,25.71-54.57,65.33-97,115-130.52a196.68,196.68,0,0,0,28.37-22.87c11.45-11.37,12.44-24,3-37.12-5.26-7.34-12.31-13.62-19.37-19.38-20.62-16.8-42.89-31.78-62.27-49.87C74.08,394,43.36,342.13,32.6,279.83c-7.54-43.69-3.08-86.23,16.08-126.73.85-1.79,1.69-3.59,2.49-5.41a12.75,12.75,0,0,0,.33-2.21c-2-.78-4.22-1.62-6.42-2.48-7.85-3.07-15.92-5.7-23.52-9.3C6.69,126.66-1.2,115.5.15,98.08c1-12.86.39-25.88.1-38.81S5.75,37.33,16.8,31.46c18.9-10,39.41-15,60.33-18.39C162-.81,247.49-2.09,333.18,2.12c40.8,2,81.42,5.8,121.15,15.64a229.13,229.13,0,0,1,38.48,13.76c11.71,5.25,18.07,14.58,17.27,28.55-.81,14.14-.38,28.37,0,42.55.32,10.64-3.25,19.47-12.1,24.92s-18.48,9.48-27.91,13.84c-3.56,1.64-7.49,2.48-11.55,3.78a24.11,24.11,0,0,0,1,3.86c27.53,57.65,26.39,116.33,5.95,175.56-18.87,54.65-53.87,97.53-98.61,133C354.09,467.78,340.43,477,327.3,486.8c-9.65,7.24-18.58,15.37-21.86,27.55-4,14.7,1.42,26.5,13.16,35.38,13.09,9.89,26.81,19,39.83,29C414.77,622,455.27,676.28,472.78,746c12.56,50,11,99.54-7.36,148.12a30.31,30.31,0,0,0-.75,3.32c6.17,2.34,12.31,4.25,18.07,7A116,116,0,0,1,499.47,914c7.15,5,10.76,11.88,10.5,21-.37,13.43-.74,26.92.11,40.31,1,15.35-6.25,25-18.92,31.77-19.53,10.39-40.64,16.08-62.17,20.17-68.77,13.06-138.25,16.2-208.06,14.14-51.05-1.5-101.86-5.71-151.7-17.28-16.81-3.91-33.26-10-49.29-16.51C6,1001.94-.85,990.91.14,975,1,961.9.5,948.66.19,935.47c-.21-9.31,3-17,10.93-21.5C22,907.7,33.39,902.45,44.53,896.79ZM265.94,934.9c12.69-.46,33.36-.74,54-2.06,33-2.12,65.77-6.18,98-14.2,14.34-3.57,22.61-11.62,27.93-24.85,23.76-59.13,21.85-118.12-1.42-176.61-21.3-53.55-58.2-95-103.89-129.16-12.74-9.53-26.06-18.38-38.16-28.66C289,548,283.81,533,286.49,515.16c2.43-16.11,11.33-28,23.55-37.6,16.21-12.78,33.13-24.67,49.17-37.65,51-41.22,86.59-92.35,98.84-157.74,8.13-43.35,5.27-85.66-15.24-125.74-2.37-4.62-4.77-6.79-10.29-5.68-50.9,10.29-102.46,14.12-154.27,15-67.8,1.16-135.3-2.24-202.09-14.92-4.68-.89-6.63.91-8.56,4.74-19,37.8-23.9,77.84-17,119.08,11,65.65,45,118.33,95,161.05,16.63,14.2,34.66,26.75,52,40.1,10.18,7.83,19,16.82,24,28.95,7.88,19.13,3.06,40-14.61,55.21-14.09,12.16-29.61,22.66-44.4,34C112.71,632.3,75.88,680.1,57.72,740.88c-14.27,47.73-15.5,95.82,2.6,142.82,13.15,34.16,9,29.69,43.33,37.32C154.4,932.29,206.14,934.45,265.94,934.9ZM17.61,71.83c0,9,.51,17.69-.13,26.27-.73,9.67,3.42,16.1,11.92,19.27,13.46,5,27,10.35,40.9,13.54,45,10.3,90.88,14.05,136.91,15.73,75.51,2.75,150.77.26,225.13-14.41,16.43-3.24,32.39-9.25,48.16-15.08,4.53-1.67,10.29-6.83,10.87-11,1.52-11,.51-22.44.51-34.05-31.07,13.65-93.71,23.86-107.71,16.54,12.58-4,23.76-7.73,35-11.14,18.76-5.67,37.64-11,56.34-16.83,4.77-1.5,9-4.6,15.45-8-5.48-3.55-8.81-6.8-12.78-8.09-13.43-4.38-26.88-9.09-40.68-11.82C384.9,22.33,331.58,18.93,278,18.66c-66.24-.35-132.41.71-197.79,12.69-17.46,3.2-34.39,9.37-51.44,14.59-2.44.75-4.17,3.83-6.22,5.83,2.08,1.94,3.83,4.82,6.29,5.68,11.22,3.93,22.45,8.19,34,10.71,53.19,11.55,107.27,15,161.52,16.74,31.07,1,62.12,2.73,93.16,4.4,4.34.24,8.6,2,12.9,3.07l0,2.64c-3.1,1.11-6.12,2.83-9.3,3.23-13.81,1.72-27.67,4.39-41.49,4.27-42-.35-84.15-.12-126-3.35C107.75,95.62,61.45,91.92,17.61,71.83ZM456.8,913c-8.9,16.62-24.44,21-40.41,24.83-33,8-66.59,11.55-100.37,13.67C243.7,956,171.78,953,100.53,939.19c-17-3.31-34.36-6.8-45.82-22.22-.93-1.24-4.18-1.85-5.82-1.27a202.76,202.76,0,0,0-21.32,8.72c-2.66,1.28-6.08,4.17-6.22,6.5-.12,2.08,3.43,5.27,6,6.43a179.47,179.47,0,0,0,24.3,9.27c55.3,15.44,112.14,19,169.12,20.82,31.84,1,63.71.87,95.56,1.68,8.68.22,17.33,2,26,3.08l.13,3.36c-4.36,1.33-8.64,3.36-13.09,3.86-20.24,2.25-40.49,5.18-60.81,5.83a922.57,922.57,0,0,1-148.95-7.48c-34.24-4.45-68.52-9.31-99.91-25.29-.3-.16-.86.21-1.75.45,0,8.06.22,16.22-.07,24.36-.21,5.73,2.35,9.9,7.06,12.1,9.63,4.5,19.28,9.42,29.46,12.23,44.06,12.15,89.26,17.33,134.75,20,78.52,4.52,156.76,2.32,234.18-12.5,18.91-3.62,37.32-10.18,55.61-16.39,4.87-1.65,11.34-6.49,12.1-10.76,1.8-10,.58-20.48.58-31.29-26,16.12-54,18.71-82.95,17.32a18.48,18.48,0,0,1,7.36-5.18c12.09-4.51,24.29-8.75,36.39-13.24,10.23-3.79,20.63-7.27,30.52-11.83,9.07-4.18,9.13-8.29.19-13.08C474.93,920.2,466,917,456.8,913Z"/><path d="M261.74,920.34c-61.36-1-113.69-3.38-164.32-19.49-12.9-4.11-21.83-14.78-22.09-28,0-2.57,3.49-6.5,6.24-7.59,7.58-3,15.61-4.9,23.49-7.15,39.83-11.42,75.08-31.21,106.53-58,4.53-3.87,9.22-7.6,14.1-11,21.73-15.2,41.22-14.91,62.45,1.18,9.11,6.91,17.79,14.38,26.63,21.64,31.59,26,68.57,40.6,107.59,50.88,1.67.44,3.35.9,5,1.46,8.15,2.75,9.11,4.48,6.8,12.51-1,3.57-2.45,7-3.32,10.66-1.44,5.93-5.16,9-10.85,11-29.3,10.23-59.66,15.35-90.36,18.09C304.15,918.75,278.52,919.43,261.74,920.34Z"/><path d="M253.71,616c-1.34-7.1-3.19-14.16-3.91-21.33-2.2-21.76-3.86-43.58-5.92-65.36-2.46-26.06-14.25-47.42-34-64.2-18-15.27-36.95-29.47-54.77-45-23.39-20.34-44.12-43.08-58.39-71-8.08-15.84-5.58-22.24,11.82-27.08,21.78-6,43.67-4.11,64.69,2.79,27.56,9,54.85,19.07,81.77,29.89,30.67,12.33,61.51,23.22,95.2,21,13.1-.85,26.08-3.33,39.15-4.79,2.92-.32,6,.51,9,.8-1,2.83-1.37,6.2-3.15,8.41-16.95,21-37,38.84-58.27,55.41-9.6,7.5-18.9,15.44-28.81,22.51-27.54,19.64-40.14,47.2-43.27,79.93-2.13,22.27-4,44.57-6.1,66.85-.33,3.6-1.16,7.16-1.76,10.74Z"/><path d="M195.69,598.83c-25.42,27.39-52,53.7-70.36,86.16-18.26,32.26-34,65.92-51.67,100.49-.25-3.63-.71-6.09-.55-8.5,1.87-29.91,11.89-57.26,27-82.78,20.94-35.34,48.09-65.09,81.95-88.52a119.94,119.94,0,0,1,11-6.29A9.6,9.6,0,0,1,195.69,598.83Z"/><path d="M433.77,831.93c-1.42-5.28-3.43-10.49-4.17-15.86-6.76-49.15-17.42-97.13-41.74-141.18l1.46-1.37c2.19,1.71,4.68,3.15,6.54,5.16,18.47,20,29.82,43.82,37,69.68,6.53,23.58,10,47.63,6.74,72.18-.49,3.78-1.65,7.46-2.5,11.19Z"/><path d="M437.38,253.27c-1.29-3.52-2.79-7-3.84-10.58q-6.48-22.11-12.68-44.31c-1.72-6.15-5.64-9-11.87-9.17-17.62-.45-35.25-.87-52.87-1.41-4.9-.15-9.8-.68-14.7-1-.12-.63-.25-1.26-.37-1.89,2.28-.88,4.5-2.15,6.87-2.57,19.53-3.45,39-7.18,58.66-9.94,14.85-2.1,22.3,2.51,28.1,16.32,7.78,18.53,8.84,38,7.14,57.8-.19,2.24-1.43,4.38-2.18,6.57Z"/><path d="M73.9,277.36c-1.37-6.63-3.25-13.2-4-19.9-2.68-22.9-2.31-45.67,5.67-67.67,5.44-15,12-19.19,27.77-17.06,10,1.36,19.94,3.85,29.84,6.12,2.72.62,5.21,2.25,7.81,3.42l-.17,2.11c-8.88,1.14-17.74,2.35-26.62,3.42-21.41,2.59-24,4.11-28.19,24.74-3.57,17.46-5.47,35.26-8,52.92-.57,3.89-.93,7.82-1.38,11.73Z"/><path d="M256,709.53c4.15,10.56,7.94,21,6.6,32.22-.33,2.78-4.17,6.89-6.72,7.14-2.39.24-6.39-3.29-7.62-6.08C244.48,734.2,249.1,714.61,256,709.53Z"/><path d="M254.33,638.93a56.14,56.14,0,0,1,7.38,36.51c-.32,2.4-3.83,6-6,6.09s-6.34-3-6.85-5.27C246,663.36,248.88,651,254.33,638.93Z"/><path d="M212.5,38.07,124,45.93c0,1,0,1.93.08,2.89l109.94,8.27.13,2.07c-1.13.58-2.22,1.59-3.39,1.69-49.91,4.06-99.77,5.05-149.42-3a51.47,51.47,0,0,1-12.79-3.72c-4.54-2-5-6-.75-8.53a47.29,47.29,0,0,1,14.39-5.55c31.53-6.54,63.49-8.49,95.62-8.08,7.46.1,14.92.26,22.36.7,4,.24,8.06,1.12,12.09,1.72Z"/><path d="M202.69,123.54a30.69,30.69,0,0,1-5.65,1.28c-46.89,1.59-93.49-.65-139.28-11.73-7.11-1.72-14-5.17-20.35-8.85-2.65-1.52-3.76-5.73-5.57-8.72,3.37-.6,6.93-2.23,10.07-1.62,28,5.41,55.87,11.77,84,16.74,23.23,4.11,46.73,6.69,70.1,10,2.3.33,4.55,1.08,6.81,1.63Z"/><path d="M384,119.75l41.16-11.07-.22-1.16H397.4l-.2-1.65c9.3-1.72,18.61-3.37,27.9-5.17,14.86-2.86,29.66-6.07,44.59-8.54,3.13-.52,6.68,1.53,10,2.39-1.64,3.12-2.51,7.47-5.09,9.09-6,3.76-12.57,7.65-19.39,8.91-21.19,3.91-42.6,6.65-63.95,9.76a49.23,49.23,0,0,1-7,0Z"/><path d="M272,37.25H238.16C244.14,32.46,261.74,32.45,272,37.25Z"/><path d="M33.67,972l144,28.35c-2.81.49-5.49,1.35-8.18,1.38-39,.34-77.47-3.49-115.19-13.55a68.86,68.86,0,0,1-16.26-7.16c-2.59-1.49-4.17-4.73-6.21-7.18C32.46,973.27,33.06,972.65,33.67,972Z"/><path d="M429.68,988.28c13.24-8.82,27.73-14.13,43-17.46,1.55-.34,4.82.91,5,1.84a7.62,7.62,0,0,1-1.8,5.66,19.15,19.15,0,0,1-6.55,4.7A71.32,71.32,0,0,1,429.68,988.28Z"/></g></g></svg>