<svg xmlns="http://www.w3.org/2000/svg" viewBox="0 0 781.81 977.19"><g id="Layer_2" data-name="Layer 2"><g id="Layer_1-2" data-name="Layer 1"><path d="M277,871.87c-13.86-21.7-14.4-32.56-2-46.54-11.53-17-12.52-35.3-5.62-54.45a6.19,6.19,0,0,0-1-5.11c-12.4-15-16.81-33-18.91-51.6-4.61-41-21-76.75-46.72-108.84-17.49-21.85-35-43.83-50.34-67.19-35.95-54.79-49.56-115.42-40.78-180.33C120,296,148.13,244,193.64,201.33c47-44.06,103.14-67.81,167-73.76,65.53-6.1,127.77,4.81,184.18,39.84,61.8,38.39,103.71,92.08,118,164.55C675,394.4,666,454.46,637.86,511.5c-15.27,30.93-36.19,58.08-57.74,84.8-19.16,23.77-37.4,48.43-45.92,78.13-5,17.45-7.48,35.83-9.11,54C524,741,521,751.91,512.75,761.52a8.17,8.17,0,0,0-1.23,6.77c5.34,14.92,5.22,29.2-3.13,43.17-1.14,1.9-.83,5.62.27,7.73,6.41,12.2,6.19,23.94-.86,35.81a9,9,0,0,0-.36,7c5.95,14.75,3.35,31.26-9.12,41.64-8.93,7.43-19.85,12.46-29.73,18.79-2.41,1.54-5.34,3.6-6.18,6.06-12.6,36.6-43.66,49.9-78.51,48.6-32-1.2-53.47-16.54-66.55-45.18C316,929,312.53,927,309.74,925c-9.29-6.73-19.66-12.29-27.85-20.13C271.63,895,270.94,883.88,277,871.87ZM343,609c-.74-2.37-1.37-4.41-2-6.44-11-35.13-26.93-68.12-43.09-101.07-9.64-19.65-18.89-39.67-26-60.33-6.23-18.14,2.85-33.41,20.67-40.7,9.59-3.92,19.53-4.42,29-.7,5.59,2.2,8.48.5,12.52-2.8,13.11-10.72,28.18-13.56,44.14-7.93a21.55,21.55,0,0,0,13.76.57c13.62-3.69,28.52-4.6,38.35,5.71,9.51,10,17.43,9,29,6.4,30.58-6.94,48.47,10.9,43.36,41.63a24.17,24.17,0,0,1-1,4.22c-7.58,21.08-15.25,42.12-22.79,63.22-11.27,31.54-22.58,63.06-33.57,94.7-2.62,7.52-5.51,15.62,4.07,21.31,1.83,1.09,2.71,3.91,3.87,6,6.3,11.47,5.54,23.74,3.89,36.06-2.4,17.92-5.57,35.77-7.17,53.77-1.13,12.76-.22,25.71-.22,39.57,8-1.32,14.27-2,20.32-3.4,23.34-5.5,32-16.45,34.62-39.9,2.11-18.87,4.57-37.89,9.22-56.25,6.93-27.28,24.67-48.91,41.42-70.76,23.51-30.65,47.93-60.56,65.17-95.56,23.53-47.76,33.19-98,24.93-150.49C631.9,259.43,581,201.44,501.64,168.31c-51.29-21.39-105-23.74-159.34-12.69-84.2,17.14-147.09,63.51-182.37,141.9-36.5,81.08-28.39,160.58,20.81,234.88,15.84,23.92,34.23,46.15,51.33,69.24,16.54,22.32,29.69,46.44,35.74,73.75,3.74,16.92,5.69,34.24,9.05,51.26,2.25,11.43,7.35,21.76,17.83,27.85,12.11,7,25.77,8.28,39.62,9.34-1.62-22.07-3-43.46-4.82-64.83-1.47-17.79-3.87-35.52-4.9-53.33C323.7,630.41,327.78,616.83,343,609Zm83.24.58c2.71-8.77,4.83-17,7.75-24.83,14.26-38.42,29.06-76.65,42.93-115.21a236.28,236.28,0,0,0,9.89-39.06c1.5-8.5-3.19-13.52-11.91-13.56-6.56,0-13.17,2.05-19.69,3.51-5.5,1.23-6.64,4.5-5.55,10.19a58,58,0,0,1-7.18,41.14c-3.27,5.62-8.43,8.82-15,8.2a15.67,15.67,0,0,1-13.69-10.39,28.22,28.22,0,0,1-2.21-10.49c.31-16.43,4.51-31.47,17.38-42.64-7.56-11.37-20-14.94-32-9.4.63,2.23,1.26,4.51,1.92,6.79,3.49,12.15,3.78,24.29-.42,36.32-2.21,6.33-6.34,11-13.36,11.75s-11.82-3-14.5-8.78c-2.6-5.56-5.39-11.76-5.35-17.66.08-10.13,2.31-20.25,3.66-30.63-8.92-.57-18.77-.22-27.43,7.28,1.64,2.44,3,4.36,4.26,6.38,7.8,12.82,13.3,26.3,11,41.75-1,6.8-4.74,11.6-11.5,13.48-6.32,1.75-11.56-.84-15.52-5.42-2.77-3.22-5.87-7.07-6.53-11-1.82-10.8-2.31-21.81-3.57-32.71-.31-2.69-.95-7.05-2.51-7.6-8.88-3.14-17.78-2.24-25.37,3.67-7.07,5.51-6.3,13.3-3.85,20.6a198.35,198.35,0,0,0,10,24.77c18.8,38,38.7,75.6,52.42,116,2.45,7.2,4.78,14.44,7.3,22l13.63-3.5c-1.72-15.7-4.25-30.49-4.67-45.33-.36-12.41,8.52-21.82,20.44-24.94,10.94-2.87,24,.77,28.31,7.91,4.58,7.52,2.07,21.08-6.31,29.15-4.67,4.49-5.64,9.29-4.33,15,1.45,6.34,3,12.65,4.86,18.88a6.18,6.18,0,0,0,3.25,3.27C416.93,606.3,421.25,607.75,426.23,609.62ZM303.35,889.16l-1.11,3.4c5.43,2.59,10.62,6.42,16.34,7.56,17.23,3.42,34.58,6.91,52,8.33,30,2.43,59.95.29,88.71-9.38,8.93-3,17-8.76,25.07-13.93,2.47-1.59,5.1-5.67,4.71-8.14-.33-2.1-4.78-3.82-7.65-5.17-2.36-1.1-5.44-.88-7.58-2.22-3.65-2.3-9.45-5.27-9.55-8.12-.13-3.76,4-8.06,7-11.39,2-2.16,5.41-3,8.2-4.45,3.22-1.64,6.79-2.83,9.56-5,1.79-1.41,3.54-4.44,3.25-6.45s-3-3.92-5.1-4.9c-2.79-1.28-6.15-1.28-9-2.39-8.11-3.1-10.07-11.22-3.92-17.26,2.84-2.8,6.6-4.81,10.21-6.65,11.6-5.93,14.35-13.88,9.11-25.19C425.08,796.19,356.45,801.39,287,784c-4.66,11.27-.4,21.5,10.92,25.35a71.27,71.27,0,0,0,11.95,2.78c36.23,5.67,72.66,5.1,109.13,3.4a94.55,94.55,0,0,1,15.88.44c2.28.28,6,2.26,6.12,3.7.19,2.35-1.41,6.06-3.38,7.15-6,3.33-12.39,6.66-19,8.25-29.81,7.13-60.14,8.25-90.67,6.89a306.51,306.51,0,0,0-31.78.66c-2.21.13-6.13,2.93-6,4.23.22,2.53,2.18,5.89,4.39,7.07a37.07,37.07,0,0,0,13.63,4.49c25.21,2.32,50.47,4.14,75.71,6.18,9.37.76,18.78,1.31,28.07,2.68,2.81.41,5.25,3.28,7.86,5-1.87,2.62-3.2,6.49-5.73,7.61-6.32,2.78-13.1,5.68-19.84,6.09-26,1.57-52.05,2.21-78.08,3.14C311.87,889.29,307.61,889.16,303.35,889.16ZM383,661.66c-4.23,3.71-12.74,1.26-11.8,11.48,2,21.85,2.9,43.8,4.22,65.71.52,8.62.95,17.24,1.41,25.63h35.92c-3.15-35.27-2.8-69.33,3.57-103.5H404.76c-.69,7.13-1.94,13.38-10.46,13.48C387.66,674.54,384.69,671.2,383,661.66ZM362.37,764.74C357,719,361,672.58,347.59,626.54c-7.43,7.65-7.33,15.68-6.79,23.51q3.69,52.69,7.85,105.36C349.52,766.55,349.77,766.53,362.37,764.74Zm55.95-115c1.62-8.48,3.13-16.45,4.87-25.54-20.64-2.92-40.26-9.57-61.16-2.61,1.25,5.33,2.36,10.21,3.55,15.08s2.41,9.52,3.68,14.53C386.8,640.3,396.07,640,418.32,649.77Zm21-11.25-2.55.32c-11.4,40.65-12.9,82.21-11.63,124.69l9.58-1c-.21-3.93-.66-7.29-.52-10.63.78-18.29,1.28-36.6,2.73-54.84,1.09-13.68,4-27.22,5-40.91C442.41,650.38,440.27,644.4,439.31,638.52Zm-9,296.76H348.44c12.78,16.46,29.05,16.93,45.18,16.45C407.88,951.31,421.94,949.19,430.33,935.28Zm-29-388.5c-14.38-2.42-22.58,5.17-20.89,18,1.34,10.21,4.05,20.23,5.82,30.39.91,5.19,3.53,6.13,8.79,4.38C389.6,581.37,392.21,563.94,401.34,546.78ZM337.26,431.92l-2.56.53c-.08,8.37.24,16.63,5.17,23.68l2.94-.73Zm99,6.4-3.54-.73q-2.51,11.19-5,22.39l3.81.8Q433.87,449.55,436.23,438.32Zm-54.44,1.8,2,.13v-19h-2Z"/><path d="M382.26,55C384.7,41,387,27.08,389.67,13.19a17.79,17.79,0,0,1,3.42-7.87c2-2.38,5.16-5.48,7.61-5.31S406,3.77,407.12,6.5c1.64,4.15,2.95,9,2.53,13.32-1.91,19.85-4,39.72-7.15,59.4-.78,4.9-5.89,13.08-8.68,13-7.56-.37-7.46-8.73-8.42-14.65-1.2-7.34-1.44-14.83-2.1-22.26Z"/><path d="M211.94,140.59c-.05,5.07-2,7.77-7.12,5.1a42.47,42.47,0,0,1-10.13-6.79C178.44,123,165.57,104.81,157.3,83.53c-.79-2-2.05-4.24-1.77-6.18.51-3.48,1.08-8.48,3.36-9.77s8.2-.4,10.19,1.72c18.69,19.94,32,43.32,42.39,68.5A12.16,12.16,0,0,1,211.94,140.59Z"/><path d="M13,490.5c-1.68,0-3.62.53-5-.11-2.88-1.33-6.9-2.77-7.76-5.13s.75-7.07,2.85-8.64a85.67,85.67,0,0,1,18.55-10.84c18.17-7.38,36.92-12.71,56.83-11.71,2.62.13,5.17,1.78,7.75,2.72-1.32,2.38-2,5.64-4,7C61.22,478.07,38.43,487.8,13,490.5Z"/><path d="M654.63,93.87c6.58-.08,8.53,2.48,7.64,6.87a20.8,20.8,0,0,1-3,7.25,176.05,176.05,0,0,1-49,49.43c-4.12,2.76-9.57,7.69-13.89,2.26-1.81-2.27.25-9.09,2.39-12.77,11.52-19.89,27.27-36,46.35-48.75C648.46,96,652.48,94.82,654.63,93.87Z"/><path d="M94.45,256.12a136.82,136.82,0,0,1-59.16-19.87c-.61-.38-1.4-.72-1.72-1.29-2.15-3.76-4.19-7.58-6.27-11.38,4.11-1.86,8.43-5.67,12.29-5.24,24.19,2.64,45.93,12.09,65.54,26.34,1.93,1.41,3.89,5.25,3.26,7s-4.31,3.11-6.86,4C99.55,256.34,97.23,256,94.45,256.12Z"/><path d="M721.87,326.56c-6.67-.66-13.43-.92-20-2.22-2.31-.46-5.11-3.19-5.78-5.46-.44-1.46,2.16-5,4.13-5.8,9.54-3.78,19.11-8.21,29.1-10,13.84-2.5,28-3.32,42.14-3.82,3.37-.12,6.88,3.89,10.33,6-2.4,3.19-4.22,8.34-7.29,9.24-17.18,5.05-34.67,9.08-52,13.45Z"/><path d="M687.2,481.67c23.69,4.56,43.91,13.73,60.91,29.08,2.69,2.43,2.54,8,3.7,12.15-3.93.9-8.11,3.17-11.73,2.48-22.52-4.28-40.86-16.5-57.1-32.07-1.87-1.8-3.52-6-2.66-7.91S685.24,482.63,687.2,481.67Z"/><path d="M309.08,208.36c-3.6,3.26-7.09,6.65-10.81,9.77-15.91,13.31-33.08,25.36-47.6,40-36.5,36.88-56.62,81.66-59.66,133.76-.44,7.48-.81,15-1.43,22.42a52.49,52.49,0,0,1-1.66,7.42l-2.23.74c-2.05-3.74-4.69-7.29-6.05-11.27-7.69-22.54-7.73-45.6-3.06-68.64,10.92-53.84,38.53-96.52,86.69-124.11,11-6.3,24.28-8.65,36.61-12.53,2.39-.74,5.2-.1,7.82-.1Z"/><path d="M593.31,357.93c8.23,8.9,10,19.49,10.79,30,3.16,44.15-9.44,84.37-31.82,121.92a34.56,34.56,0,0,1-6.83,8.38c-1.56,1.35-4.82,2.41-6.4,1.66-1.95-.91-4-3.81-4.12-5.92a34.81,34.81,0,0,1,1.84-12c5.08-15.33,10.48-30.56,15.81-45.8,9.15-26.17,14.43-53,14.31-80.84C586.87,369.22,586.4,362.62,593.31,357.93Z"/><path d="M593.19,319.28c-.36,2.8-.1,5-1,6.55-1.35,2.38-3.2,5.62-5.37,6.08-1.92.42-5.71-1.89-6.68-3.94-5.73-12.15-10.95-24.55-16.14-37a9,9,0,0,1-.23-5.7c.67-2.12,1.88-4.92,3.6-5.62s4.84.33,6.28,1.72C584.67,292,590.39,305.3,593.19,319.28Z"/><path d="M509.07,579.18c-.2-11.5,16.26-31.23,27.72-33.16,3.69-.62,6.08.2,5.73,4.81-.73,9.57-17.17,30.68-26.45,33.56C511.45,585.82,509.21,583.85,509.07,579.18Z"/></g></g></svg>