<svg xmlns="http://www.w3.org/2000/svg" viewBox="0 0 706.17 960.94"><g id="Layer_2" data-name="Layer 2"><g id="Layer_1-2" data-name="Layer 1"><path d="M0,729.86C2.54,668.7,4.74,607.52,7.76,546.38c1.52-30.79,3.18-61.68,7.23-92.19,4-30.12,22.12-44.46,52.43-45.79,21.62-.94,21-1,22.31-22.63C93.41,323,96.37,260,113.56,199c12-42.56,29.2-82.5,59.35-115.72,41.87-46.11,94.31-72.59,155.61-80.56,63-8.19,123.16,2.07,178,35.39C568.64,75.8,605,132.2,621.35,202.12,633.26,253,632,304.88,631.17,356.64c-.19,12.2-.47,24.39-1,36.58-.28,7,3,10.71,9.57,12a60.06,60.06,0,0,0,9.55,1.52c17.18.58,28.23,9.27,36.29,24.26a168.71,168.71,0,0,1,20.46,86.77c-1.78,57.46-3.26,114.93-5.54,172.37-2,51.72-4.86,103.41-7.69,155.1-.52,9.38-2.32,18.76-4.27,28-4.42,20.85-16.45,35.72-36,44.67-25.57,11.74-52.82,17.41-80.27,22-96.95,16.21-194.67,22.59-292.9,20.74-72.74-1.36-145-7.34-216.2-23.54-1.21-.27-2.41-.59-3.61-.91C24,926.7,10,910.58,5.93,873.75c-1.71-15.57-3.82-31.18-4.13-46.81-.64-32.33-.2-64.69-.2-97ZM663.26,507.24c.24.86.47,1.71.71,2.56-2.67,1.73-5.13,4.26-8.05,5-8.37,2.21-16.86,4.6-25.44,5.34Q565.8,525.8,501,530.42c-10.75.75-20.11,4-29.63,8.76-14,7-28.26,13.6-43,18.49-41.54,13.75-84.11,14.22-126.85,6.82C276.72,560.19,252,554.24,231,540c-10.08-6.85-20.1-8.24-31.16-9.2q-55-4.8-110-10c-13.12-1.24-26.16-3.38-39.29-4.4-9.76-.77-15.34,1.16-15.28,12.67.07,12.66-1.78,25.31-2.3,38-1.83,45-4.49,90-4.87,135-.41,48.74,1.06,97.51,2.43,146.25.33,11.81,2.9,23.67,5.55,35.26,2.75,12.05,10.71,20,22.9,23.16,8.4,2.19,16.76,4.7,25.29,6.32,61.73,11.72,124.09,17.32,186.85,19a1563.58,1563.58,0,0,0,304-21c21.69-3.67,43.05-9.8,64.17-16.14,15.41-4.62,23.46-16.94,26.43-32.42a128,128,0,0,0,1.87-17c3.38-63.37,7.27-126.72,9.8-190.12,2-51.22,2.91-102.5,3.28-153.76.15-21-4.33-41.58-16-59.77-7.14-11.15-17-15-29.49-11.42-2.61.75-6.36,3.66-6.43,5.68-.08,2.7,2.4,6.09,4.73,8.08,2.1,1.81,5.67,1.77,8.23,3.2a119,119,0,0,1,10,6.83c-3.33,2.19-6.43,4.91-10,6.46-6.82,2.94-14.37,4.39-20.81,7.92a112.63,112.63,0,0,1-39.38,13c-56.35,7.71-113,10-169.78,8.5a222.61,222.61,0,0,1-25.22-2.46c-1.94-.27-3.57-2.72-5.35-4.17,1.79-1.48,3.38-3.78,5.4-4.26A80,80,0,0,1,402,477c31.34-1.16,62.68-2.08,94-3.14a57.51,57.51,0,0,0,10.33-1.13c1.33-.29,3.27-2.09,3.23-3.14a4.87,4.87,0,0,0-3-3.56,102.74,102.74,0,0,0-14.68-2.18c-17.37-1.19-34.76-2.07-52.12-3.31-2.83-.2-5.56-1.64-8.34-2.51,22.76-10,47.18-6.86,72-13.28-16.65-3.78-32.26,1-46.51-4.31,0-1.06,0-2.13,0-3.2l42.37-7.44a5.38,5.38,0,0,0-3.86-1.94c-11.68-.57-23.38-1.66-35.05-1.47Q344,428.31,227.51,430.73a17,17,0,0,0-7.86,1.69c-1.85,1.07-4,3.77-3.84,5.59.12,1.66,2.87,3.78,4.88,4.51,3,1.08,6.33,1.14,9.53,1.58,18.21,2.47,36.45,4.82,54.64,7.49,3.35.49,6.52,2.21,9.77,3.37l-.42,3.33-68.29,4c15.75,4.13,30.91,2.7,43.9,10.59a20.21,20.21,0,0,1-9.36,2.67c-15.18.34-30.37.28-45.54.75-6.92.21-14,.46-20.67,2.15a140.79,140.79,0,0,1-49.56,3.63c-21-2.13-41.24-9.29-62.67-8.07a70.3,70.3,0,0,1-17.78-1.75c-3.56-.73-6.8-3.06-10.18-4.68.24-1.15.47-2.31.71-3.47,5.75-.73,11.49-1.54,17.24-2.17s11.43-1.05,17.15-1.57l0-2.24c-10.37-6.65-23.47-2.42-34.4-6.86-.16-.84-.31-1.67-.47-2.51l25.76-8.47c-28.75-5.87-37.78.13-39.71,25.3-1.41,18.28,2.93,24.85,21.16,27.62,39.05,6,78.2,11.36,117.38,16.45,24.62,3.2,49.47,4.49,73.05,13.67,69.67,27.13,139,28,208.08-2.85,10.59-4.74,23-6.51,34.7-7.46,27.27-2.2,54.64-3.11,82-4.44,24.85-1.21,49.69-2.39,74.55-3.29C655.25,505.19,659.27,506.57,663.26,507.24ZM381.48,400.63c24.79,0,69.32,0,113.86,0,10.43,0,12.32-1.78,12.41-12,.22-23.88.46-47.77.39-71.65-.08-29.61,0-59.3-6.46-88.39-7.16-32.3-19.31-62.29-44.89-84.86-35.38-31.22-77-38.37-122.08-30.18-43.92,8-74.57,33.23-90.36,74.81-7,18.44-12.62,37.91-15.25,57.41-4.55,33.71-6.55,67.78-9.08,101.74-1.28,17.11-1.28,34.3-2.11,51.45-.27,5.53,2.1,7.82,7.35,7.76,2.73,0,5.47,0,8.21-.08C276.22,404.89,319,403.16,381.48,400.63Zm156.31-45.37-3.53.09c0,28.36.2,56.72-.08,85.07-.14,13.24,2.93,18.09,16.41,18.42a304.76,304.76,0,0,0,40.83-2.17c11.09-1.24,11.82-2.74,11.92-13.94.38-41.8,1-83.61.86-125.41-.1-32.33-.51-64.71-6.79-96.62-11.5-58.46-38.15-108.35-86.22-144.6C449.7,29.73,380.42,17.56,306.28,35.93c-60,14.86-107.64,47.51-138.39,102.7-15.89,28.53-26.56,58.88-33.31,90.56C121.51,290.51,119.36,353,116.8,415.35c-1.1,27,2.42,30.42,29.18,34.36,12.59,1.86,25.21,3.24,37.28-2.87,6.12-3.1,9.15-7.54,9.43-14.67,1.79-44.49,2.91-89.05,6.2-133.43A778.13,778.13,0,0,1,211,207.22c6.45-33,21.38-62.44,47.06-85.42C310.91,74.53,396,72.85,451.5,106.07c50.47,30.18,74.18,77.86,80,134.53C535.39,278.64,535.81,317,537.79,355.26Z"/><path d="M74.41,855.15c5.79-14.26,3-30,9.51-43.64l2.32-.23c1.13,3.86,2.77,7.65,3.27,11.59,1.75,13.55,3.1,27.15,4.61,40.74.27,2.46.06,5.16,1,7.31a7.19,7.19,0,0,0,4.7,3.53c1,.16,3.19-2.25,3.47-3.77,1.1-5.84,1.28-11.86,2.56-17.65.55-2.46,3-4.51,4.53-6.74,1.64,2,4.11,3.69,4.75,5.94A115.65,115.65,0,0,1,119,871.15c.68,6.33,4.31,8.3,9.81,9,20.73,2.48,41.47,4.82,62.14,7.71,12.53,1.75,24.95,4.27,37.35,6.77,2.92.59,5.56,2.51,8.34,3.81l0,2.92c-4.51,1-9,2.89-13.5,2.76-35-1-70-2.09-105-3.67-13.38-.6-26.74-2.25-40.06-3.88C62.82,894.66,56,888.27,53.89,873a272.53,272.53,0,0,1-2.14-32c-.6-31.84-.4-63.67,4.94-95.2.7-4.12,2.4-8.07,3.64-12.1l2.76.13c.93,3.63,2.44,7.22,2.71,10.9,2.12,29.51,3.93,59,6,88.55C72.34,840.59,73.53,847.86,74.41,855.15Z"/><path d="M173.8,561.36c-4.68.78-9.39,2.39-14,2.2-23.35-.95-46.68-2.37-70-3.61-6.17-.32-12.35-.6-18.92-.92-1.43,6.94,1.6,9.69,7.39,10.68,14,2.37,27.92,4.67,41.81,7.36a77.24,77.24,0,0,1,14.13,4.53,6.28,6.28,0,0,1,3.23,4.19c.15.88-2.06,2.88-3.45,3.17-6.06,1.25-12.22,2.91-18.33,2.86-12.4-.11-24.8-1.21-37.2-1.94-2.41-.15-4.81-.52-7.48-.82-1.89,7.45.52,11.18,7.61,12.74,7.74,1.71,15.36,4,22.91,6.48,1.76.58,3,2.74,4.5,4.17-1.5,1.53-2.82,4.11-4.53,4.4-7.81,1.31-15.73,2.71-23.59,2.64-6.72-.07-9.14,1.7-9.35,8.64-.41,13.41-1.76,26.8-2.87,40.18a37.28,37.28,0,0,1-1.86,10.23A8,8,0,0,1,58.81,683c-1.25.26-4-2.17-4.55-3.87-1.51-4.95-3.15-10.15-3.14-15.25q.18-58.9,1.09-117.8C52.32,539.28,57,536,65.65,537c25.16,2.91,50.31,6,75.37,9.67,8.29,1.2,16.38,4,24.42,6.54,3.09,1,5.81,3.17,8.69,4.81Z"/><path d="M616,807.65q4,19,8,38l2.43-.09c.77-7.24,1.61-14.48,2.29-21.73,2.55-27,4.9-54,7.65-80.92.6-5.87,2.32-11.68,4-17.37.64-2.1,2.75-3.76,4.2-5.63,1.53,2,3.87,3.87,4.43,6.14a59.75,59.75,0,0,1,2.17,15.44c-.81,36.8-1.55,73.61-3.13,110.37-.78,18.15-7.61,25.77-25.33,30.32-30.46,7.82-61.52,11.48-93,12a24,24,0,0,1-6.68-.42c-2.19-.61-4.16-2-6.23-3.11,1.51-2,2.59-5,4.62-5.93a76.62,76.62,0,0,1,16-5.82c14.53-3.29,29.15-6.23,43.8-8.91,5.74-1,9-3.22,8.56-9.59a20.86,20.86,0,0,1,1.17-8.05c.62-1.81,2.4-3.21,3.66-4.79,1.39,1.59,3.26,3,4,4.81,1,2.46.91,5.42,1.91,7.92.86,2.15,2.58,4,3.92,5.91,1.21-2.28,3.27-4.49,3.47-6.86,1.19-14.12,1.85-28.28,2.92-42.41.24-3.06,1.44-6,2.2-9.08Z"/><path d="M603,591.75c2.62-1.5,5.09-3.36,7.87-4.42,7.41-2.86,15-5.24,22.42-8.06,4.2-1.6,7.43-4.15,5.29-10.48-12.91,1-25.95,2.51-39,3a297.72,297.72,0,0,1-30.45-.85c-2.08-.13-4-2.37-6-3.64,1.82-1.74,3.39-4.61,5.48-5.06q26.54-5.65,53.25-10.48c7.32-1.34,14.76-2.1,22.17-2.88,10.93-1.15,14.59,1.19,14.86,12.1.44,17.84-.14,35.73-.72,53.58a110.68,110.68,0,0,1-2.67,19.91c-.66,3-3.15,5.66-4.8,8.46-2-2.56-5.07-4.89-5.64-7.73a219.26,219.26,0,0,1-4-28.71c-.36-5.88-2.23-7.64-8-7.41a108.77,108.77,0,0,1-19.32-1.17c-3.62-.51-7-2.42-10.55-3.71Z"/><path d="M248.12,491.33c-6.21,6.27-39.12,5.13-46.69-1.63C206.4,484.25,241.25,485.46,248.12,491.33Z"/><path d="M178.6,252.87c.58,4,1.73,8,1.66,12.05q-1,60.4-2.46,120.81a22.52,22.52,0,0,1-2,9.4c-1.31,2.56-4,6-6.21,6.12-2.43.16-6.5-2.51-7.35-4.86-2-5.5-3.72-11.61-3.36-17.34,1.61-25.3,3.47-50.6,6.3-75.78,1.64-14.52,5.19-28.83,8.11-43.19.54-2.62,2.18-5,3.31-7.51Z"/><path d="M287.13,67.64c-3.85,2.49-7.53,5.31-11.57,7.41-29.21,15.19-52.15,37-69.34,65a60.51,60.51,0,0,1-10.7,13.27c-5.72,5.16-12.47,2.35-12.26-5.31.17-6.25,1.31-13.21,4.36-18.51C207.33,95.23,236,72.73,275.4,65.12c3.45-.66,7.13-.08,10.71-.08Z"/><path d="M527.12,149.92c1.15.78,2.58,1.34,3.4,2.37,20.82,26.17,32.18,55.66,30.2,89.4-.28,4.74-4,9.28-6.14,13.91-2.81-4.38-7-8.42-8.18-13.21-5.39-21.1-9.86-42.44-14.79-63.66-2.16-9.29-4.63-18.52-7-27.77Z"/><path d="M556.13,360.52c1.27,4,3.36,7.92,3.67,12q2.06,27.47,3.15,55a27.85,27.85,0,0,1-2.58,12.23c-1,2.16-4.44,4.52-6.66,4.39s-4.45-3.05-6.24-5.12c-.83-1-.9-2.86-.81-4.31,1.4-22.25,2.81-44.5,4.45-66.74.18-2.47,1.74-4.84,2.67-7.25Z"/><path d="M140.31,338.5c.57,1.51,1.42,2.81,1.51,4.16,1.6,24,3.18,48,4.56,72,.28,4.85.84,10.55-6,11.79-5.51,1-9.92-3.15-10.54-10.86-2-24.45,1.36-48.46,6.87-72.22a11.75,11.75,0,0,1,1.45-3.4C138.55,339.45,139.35,339.16,140.31,338.5Z"/></g></g></svg>