<svg xmlns="http://www.w3.org/2000/svg" viewBox="0 0 948.73 961.59"><g id="Layer_2" data-name="Layer 2"><g id="Layer_1-2" data-name="Layer 1"><path d="M948.73,480.6c-4,142-54.16,263.7-161.18,359.28-74.47,66.51-161.82,107.19-261.31,118.38-148,16.64-275.37-29.14-381.53-132.84C64,746.54,17.07,650,3.84,538c-18.36-155.37,29.28-289,138.27-400.35C222.05,56,320.11,11.78,433.91,1.81c203.39-17.83,397,97.68,475,284.5C934.83,348.25,949,412.88,948.73,480.6ZM832.94,534.08a41.17,41.17,0,0,0-4.91-1.37c-16.45-2.35-24.32-9.32-28.44-25-.74-2.84-1.36-6.09-3.15-8.22-15.22-18.12-25.07-38.91-31.75-61.43a86.81,86.81,0,0,0-5.62-13.11c-.84-1.69-2.39-4.19-3.76-4.28-13.73-.91-27.59-5.21-40.87,3.11-14.65,9.19-39.76,3.83-48.76-10.5-9.94-15.84-24.21-19.62-41.28-16.48-16.68,3.08-33.23,6.91-49.92,9.9-5.27.94-7.8,2.76-8.16,8.34-.85,13.29-7.7,23.46-17.49,32-3.08,2.7-6.28,5.68-8.2,9.21-12.43,22.78-8.8,49.31,9,68.08,3.89,4.12,8,8.08,11.65,12.37,4.33,5,9.53,6.79,16,5.44,8.74-1.84,17.67-3,26.21-5.49,16.2-4.76,31.13-1.81,45.83,5.43,6.79,3.34,10.43,8.07,8.43,15.65-4.6,17.39,1,32,11,46,10.21,14.33,12.51,30.6,9,47.79-2.09,10.2-4.54,20.38-5.67,30.7-.67,6.18-1.1,14.25,6.84,16.53,19.68,5.67,39.63,10.44,60.08,15.73,1.68-4.71,3.92-9,4.71-13.62,3-17.1,11.7-30.11,26.24-39.46,2.21-1.43,3.91-3.65,5.88-5.47,7.68-7.11,9.88-15,6.92-25.66-8.11-29.39-.26-58.94,30.63-72.55C823.31,553.33,828.84,544.61,832.94,534.08Zm-127.61-331c2.33,4.79,4.36,7.51,5,10.52,1.38,6.76,4.62,14.64,2.45,20.28-3.44,9-8.89,18.57-14.69,25.28-8.7,10-23.72,13.69-37.82,12.86-4.47-.27-8.67-5.23-13.6-8.43C644,273.9,636,276.61,627,278.13c-2.45.41-5.32,1.34-6.95,3-5.44,5.65-10.41,11.75-16.13,18.35,9.16,16.73-4.5,36.34-23.09,34.39-2.89-.31-5.94.44-8.86,1-8.1,1.49-5.7,8.37-5.42,12.91.21,3.52,3.08,9,5.89,9.79,6,1.81,12.68,2.09,17.13-5.2,3-5,7.83-8.94,11.79-13.4,8.3-9.36,15.93-19.64,30.13-20.37,1.17-.06,2.45-1.51,3.38-2.57,15-17.26,14.83-17,35.79-8.41,13.95,5.71,27.26,11.85,32.71,24.15,4.82-7.95,8.09-19.81,15.73-24.44,12.44-7.53,27.41-12.33,41.9-14.66,21.91-3.54,37.83,11,48.8,35.56,4.66,10.44-1.52,19.38-13.19,19.67-21.36.54-42.75.16-64,.16,1.42,10.82,6.54,15,17.53,13.62,2.36-.31,4.67-1,7-1.3,23.45-3.24,27.82.51,29.47,24,1,14.54,1.1,29.73,12,41.2,11.41,12.05,17.47,26.84,23.53,41.75,2.56,6.3,4.93,12.68,8,20.62,12.51-14.92,34.32-15.79,42.55-31.75-12.07-8.86-24-16.17-34.09-25.41-10.9-9.94-11.53-25.15-3.41-33.75,7-7.36,15.54-6.91,21.24.89,1.31,1.79,3.42,4.06,5.3,4.19,11.46.81,23.12,2.45,34.39,1.12,12-1.42,11.88-2.73,9.44-14.7-16.9-82.68-52-156.25-109.93-218.21-9.91-10.59-20.53-20.53-31.37-31.3.93,9.11,2.48,16.7,2.24,24.24-.22,7.31-3,15.52-11.08,16.45-9.77,1.12-13.56,7.9-19.38,13.64-3.95,3.89-10.43,5.5-16,7.31C715.61,202.09,710.8,202.25,705.33,203.11ZM298.7,271.94c-2.7-2.51-5.77-4.76-8.1-7.62-7.62-9.3-4.64-19,6.77-22.56,12.18-3.79,24.4-5.19,36.87-1,7.24,2.45,16.54-1.45,14.81-5.72-1.82-4.47-7.76-7.52-12.31-10.56s-11.06-4-13.7-7.91c-4.09-6.07-5.56-13.89-8.25-20.93-.75-2-1.51-4.91-3-5.41-1.83-.64-4.79.18-6.5,1.41-2.08,1.5-3.24,4.22-5,6.19-11.83,13-23.38,26.2-35.85,38.51-2.89,2.85-10.19,4.66-13.32,3-4.18-2.24-6.62-8.19-9.16-12.89-2.29-4.21-3.11-9.28-5.68-13.25-2.72-4.19-6.87-7.43-10.17-11.27-15.49-18.06-12.94-37.4,8.42-48.1,13.28-6.66,28.58-9.28,43-13.77,3.57-1.11,7.92-1.48,10.46-3.78,9-8.17,19.77-10.8,31.28-11.14,14.14-.42,21,5.6,23,19.45.41,2.8.71,5.62,1.39,11,7.39-6.46,13.16-11.51,18.94-16.58-9.06-8.4-17.62-15.07-24.53-23.14-5.21-6.08-10.11-7-17.13-4.78-10.21,3.16-20.49,6.38-31,8.3-12.39,2.27-24.52-5.25-27-16.65-1.09-4.94.6-10.49,1-15.84-27.65,15.48-52.82,34.52-76.32,55.76C141.68,184.17,105,232.53,80,289.42c-2.54,5.8-3.68,12.21-5.46,18.35,12.6,3.58,14.8,7,12.84,18.37-1.27,7.33-3,14.59-4.12,21.94C79.71,370.66,78.23,393,88,414.8c4.63,10.39,11.37,17.31,23,18.44,10.29,1,15.82,7.27,18.91,16.49a60.72,60.72,0,0,0,2.53,5.66l1.5-.42c.76-6.82,1.52-13.65,2.32-20.89-4.39,0-7.39.34-10.29-.05-21.76-2.88-33.7-10.21-30.35-34.47a250.44,250.44,0,0,1,7-32.29c4-14.47,13.08-24.1,28.83-25.2,11.87-.83,23.84-1.7,35.67-1,10,.6,20.95.59,27.9,11.25,2.13-5.67,3.82-10.41,5.69-15.08,4-9.9,10.54-17.51,21-20.48,12.09-3.42,20.91-10.91,28.66-20.31,12.32-14.94,25.85-27.69,47.65-23.63C298.13,272.85,298.34,272.41,298.7,271.94ZM281,779.64a40.59,40.59,0,0,0-.33-4.88c-3-14.94,1-26.52,15.78-33,8.86-3.88,10.32-11.1,9.95-19.9-.8-18.56,6.69-30.93,24.11-36,14.2-4.16,20.17-13.22,22.81-26.51,2.52-12.64,6.69-24.52,15.23-34.77,12.18-14.63,9.65-22.54-8.73-28.24-5.9-1.83-12.28-2.12-18.44-3.07-3.81-.59-7.8-.58-11.42-1.72-23.1-7.29-33.15-24.52-35.89-47.4-1.24-10.32-9.68-14.44-19.16-9.76-10.58,5.22-14.12,4.31-19.73-6.7-2.28-4.47-4.81-5-9.18-4.2-18.64,3.63-21.13,2.12-27.58-15.7-.59-1.65-1.31-3.26-2.16-5.37-6.11,2.32-12,4.27-17.56,6.87a7,7,0,0,0-3.34,5.19c-.18,11.51-4.54,21.32-10.84,30.68-11.43,17-12.39,34.9-1.44,52.08,6,9.35,13.41,18.56,22.19,25.15,21.79,16.38,30.93,38.31,33.48,64.41,2.52,25.76,5,51.59,9.12,77.12,2.52,15.6,6.83,31.27,16.8,42.2l12.69-4.68C264.29,781.9,264.33,781.61,281,779.64ZM471.07,213.39c-10.76-.52-21.12-3.36-29.94-.83-9.48,2.72-18.35,3.38-25.68-1.41-10.26-6.71-21.36-6.59-32.41-8-10-1.24-20-1.94-30-2.88a12.46,12.46,0,0,0,5.62,5.41c21.51,11.22,25.61,25.37,13.92,46.71-1.29,2.34-1,6-.45,8.82,1.79,9.43,2.08,18.72-4.76,26.19-6.48,7.08-14.9,6.27-23.29,3.57-1.07-.35-2.27-.28-5-.59-5.94,28.16-11.85,56.16-18.26,86.52l145.5,8.64C467.9,327.47,469.46,271.24,471.07,213.39Zm-6,188.06L320.93,391.17a6.29,6.29,0,0,0-1,1.7,462,462,0,0,0-2.2,120.25c.26,2.38,4.73,6,7.39,6.14,44.33,2.18,88.69,3.91,133,5.68,2,.08,4-.41,6.88-.74ZM621.21,685.39c4.71-21.59,9.77-44.52,14.61-67.49a11.58,11.58,0,0,0-.76-7c-7.09-14.52-10.75-29.53-5.88-47.43-10.76,1.38-20.23,1.2-28.75,3.94-32,10.28-57.17,1.53-76.73-25.26-1.33-1.82-3.48-4.24-5.31-4.3-12.63-.38-25.28-.2-38.21-.2v135ZM161.72,703.22c-27.36-54.44-43.29-111.45-51.42-170.83-2.62-19.1-3.09-19.2-22.13-22.78-18-3.38-36.1-6.35-54.95-9.65,0,3.79-.36,6.47.06,9,4.56,27.26,8.25,54.73,14.13,81.71,9.27,42.5,26.5,82,48.74,119.36,2.78,4.66,5.09,6.66,11.14,5.14C124.86,710.76,142.69,707.32,161.72,703.22Zm317.92,100.2a29.17,29.17,0,0,0,3.44.87c28.12,2.87,56.26,5.48,84.33,8.76,6,.7,8.06-2,9.72-6.46q18.36-49.33,36.63-98.71c.76-2,.57-4.45.9-7.33-45.06-7.09-89.59-11.68-135-11Zm-14.86-115.3c-30.08,1.35-58.29,2.6-86.48,4-1.34.07-3.2.74-3.86,1.75-7.8,12-20.4,16.85-32.44,22.73-2.18,1.06-4.78,4.15-4.78,6.29,0,9.15-.85,18.9,2,27.32,6.55,19.69,15.16,38.69,22.65,58.08,2.09,5.42,5.46,5.8,10.45,5,14.4-2.2,28.84-4.35,43.33-5.79,16.49-1.63,33.05-2.47,49.17-3.63Zm18.56-304.95h71.88L556,381c-16-5.51-17.7-18.12-16.77-31.93.44-6.54,1-13.1,1.94-19.58,2.11-14.22,9.8-20.86,24.22-21.12,4.1-.08,8.21.35,12.57.57-2.13-6.21-4.11-12-5.11-14.88-8.4-3-16.41-3.81-21.26-8.13-9.28-8.28-7-29.7,3.25-36.86,4.89-3.41,6-6.7,5.91-12.35-.35-16.51,15.35-26.16,28.86-16.72,7.5,5.24,12.16,14.76,17.48,22.78,2.3,3.47,3,8,5.1,13.87l13.42-17.44c-8.2-2.44-13-10-16.17-19.12-1.65-4.78-3.68-9.45-5.05-14.31-1.63-5.79-4.75-6.95-10.61-6q-29.07,4.91-58.32,8.62c-16.79,2.09-33.69,3.34-52.16,5.12Zm-263.47-9.08c-1.71,4.82-2.83,8.81-4.5,12.56C210.78,397,202.83,400.24,193,394.8c-6.92-3.83-15.4-8-18.8-14.35-6.86-12.83-16.91-11.77-27.93-10.63-9.35,1-15.63,6-17.73,15.09-1.78,7.69-2.49,15.63-3.8,24.32,3.18-.48,4.92-.57,6.56-1,28.9-7.8,40.82,3.66,34.5,33.25-.19.87-.41,1.74-.54,2.62q-2.21,14.79-4.35,29.51c5.5.93,10.78.22,12.71,2.43,8,9.16,15.29,4.22,23.11.47,9.38-4.5,19.66-7.61,29.26-2.86,6.87,3.41,12.7,9.59,17.93,15.47,4.57,5.15,8.54,8.24,16,6.33,3.51-.91,8.05.68,11.72,2.16,9.69,3.92,19.15,8.38,28.52,12.55,1.66-41.82,3.25-82,4.85-122.47ZM321.43,533c.43,2.4.79,4.44,1.17,6.48,3.44,18.38,6.49,21.48,25.14,24.12,19.73,2.78,37.17,9.86,51.64,24.14,7.82,7.71,11.39,16.85,8.51,26.71-3.2,10.94-6.9,23.08-14.27,31.13-9.12,10-10,20.73-11.71,32.71l82.62-4.11V539.85Zm544.88-11c-4,28.22-16,50.48-40.35,65.1a51.15,51.15,0,0,0-11.22,8.8c-2.46,2.66-5.2,6.56-5.1,9.83.36,12.18,1.85,24.33,3.11,38.85,4.61-4.93,7-7.55,9.42-10.07,10-10.2,22.33-13.91,30.28-9.15,7.77,4.64,11.12,17,6.51,30.1-6.91,19.63-14.53,39-22.65,58.19-2.19,5.18-6.7,9.89-11.22,13.45-9,7.06-21.63,7.3-29.26,1.67-7.07-5.22-8.88-16.48-4.67-27.82,2.78-7.49,5.32-15.07,8.68-24.64-17,13-29.22,26.21-31,46,15,6.75,30.37,13.2,45.28,20.56,6.39,3.16,9.56,2.15,13.67-3.57,38.67-53.85,64-113.4,76.67-178.34,2.94-15,4.86-30.19,7.36-46ZM106.86,727c2.85,4.5,4.73,7.8,6.93,10.89,31.77,44.6,70,82.72,115.56,113.15,18,12,11.45,11.69,30.68-.23.45-.28.7-.87.48-.58-9.89-15.51-18.09-32-29.62-45.7A603.65,603.65,0,0,1,171.27,720c-1.23-2.1-4.63-4.71-6.54-4.37C145.78,719,126.94,722.94,106.86,727Zm598.35,67.14-1.08-2.24c-11.81,2-22.21-1.15-28.72-10.51-5.48-7.89-9.46-17.08-12.72-26.18-5.1-14.26-9.3-28.86-13.35-43.47-2.24-8-8.77-7.46-14.27-7.37-2.31,0-5.57,4.12-6.63,7-7.88,21.5-15.05,43.26-23,64.74-5,13.5-10.92,26.66-16.28,39.61,21,6.73,41.53,12,60.92,20.08,11.77,4.92,18.22,2.29,25.31-6.73C684.86,817,695.23,805.73,705.21,794.12Zm-334.73,31c20.61,37.81,42.21,70.43,75.53,94,8.31,5.87,16.18,5.55,24.91,3.83-1.78-35.54-3.52-70.42-5.33-106.83Zm308.94,23.64c2.14,1.27,4.74,2.28,6.64,4,7,6.48,13.55,5.32,20.48-.1C730.4,834,755.14,816.38,778,796.56c14.37-12.45,26-28.06,40.36-43.94-19-6.51-35.27-12-51.49-17.69-5-1.76-6.52,1.28-8.68,4.88-9.2,15.27-17.85,31-28.39,45.29C714,806.63,696.68,827.11,679.42,848.78ZM483.05,922.56l3.07,2.76c6-3.09,13.09-5.05,17.91-9.46,26.79-24.49,46-54.55,61.71-87,.33-.7.13-1.65.28-4.28L479.1,816C480.48,853.16,481.76,887.86,483.05,922.56Zm38.33-3.28c50.49-10.14,94.23-32.69,131.3-69.63-22.23-7.6-44.4-13.91-66.7-19.74-1.87-.49-5.73,1.71-6.75,3.66C563.29,864.29,544.5,893,521.38,919.28ZM211.54,696.43c-.27-3.52-.33-6.42-.75-9.26-2.39-16-10.83-28.44-22.43-39.53C178.3,638,168.22,628,160.42,616.54c-18.47-27-23-55.78-5.43-85.53,1.31-2.21,2.17-4.7,3.79-8.29l-37.15-7.13c3.43,21.51,6,41,9.72,60.24,8,41,21.61,80.32,39.74,118,1.78,3.7,3.13,7.66,8.9,6.73C190.21,698.91,200.52,697.84,211.54,696.43ZM480.91,524.62H513c-12-21-10.79-42.26-6.42-64C509.32,447,514,435.1,526.08,427c9.19-6.19,13.07-15.06,11.16-26.82-16.24,0-32.54.18-48.83-.1-6.16-.1-8.16,2.06-8.12,8.28.21,36,0,72,0,108.05C480.31,519,480.68,521.59,480.91,524.62ZM323.85,298.53c-8.21,9.76-19,9.63-29.28,6.72-8-2.26-12.74-.28-17.43,5.84-10.88,14.17-22.49,27.14-40.4,33.47-5,1.76-7.7,9.88-13,17.2l84,12.41C313.28,348.21,318.52,323.6,323.85,298.53ZM106.54,500.44c2.15-21.41,1.3-40-21.87-48.09-1.93-.67-3.58-2.11-5.39-3.14a73.09,73.09,0,0,1-32.42-36.75c-1.75-4.25-3.76-8.39-5.65-12.58l-2.77.25c-2.37,29.52-4.74,59-7.18,89.58Zm555.24-377c-9-8-16.3-15.16-24.35-21.23-2.66-2-7.67-2.42-11.11-1.56C616,103.27,605.87,107,595.59,110c-8.66,2.52-17.45,4.62-26.3,6.94L609,185c12.9-7.51,19.92-18.85,26.05-30.79S646.91,130,661.78,123.46ZM431.85,921.21c-25.29-19.84-43.34-45.23-60-71.82-4.21-6.73-7.43-16.57-13.48-18.95s-15.23,2.67-23.05,4.33c-6.82,1.44-12.39,3.34-11.11,12.48.44,3.17-1.37,7.08-3.16,10-3.41,5.67-1.49,9.22,3.32,12.55,8.08,5.59,15.81,11.68,24,17C374,903.54,401.3,916.33,431.85,921.21ZM484.12,201c38.1-.91,74.48-4.91,112.52-14.19-9.92-17.25-19-33.53-28.56-49.5-10.88-18.13-11.08-18-31.92-14.54a9.65,9.65,0,0,0-2.14,1.16c-1.14,15.44-11.29,23.58-25.23,28.45a145.82,145.82,0,0,0-17.34,7c-2.35,1.19-5.22,4-5.44,6.3C485,176.9,484.72,188.2,484.12,201ZM419.06,56.37l.94,2.74c18.4,3,27.28,13,25,32.2-2,17.27-6.2,34.37-10.53,51.26-2.77,10.8-6.65,21.16-3.11,35.09,5.31-9,8.49-16.57,13.63-22.47a137.23,137.23,0,0,1,23.78-22c4.7-3.34,7.13-5.93,7.19-11.65.28-23.23.9-46.46,1.41-69.69.15-6.86-4.81-10.66-10-9.44C451.13,46.29,435.16,51.61,419.06,56.37Zm111.49-16c2,1.14,4,2.17,5.84,3.44,9.7,6.54,14.53,16.08,9.92,26.8-5.49,12.76-1.56,21.2,7.66,29.2,1.33,1.15,2.11,3,3.55,3.95s3.83,2.08,5.43,1.68c19.25-4.72,38.43-9.72,57.63-14.64.06-.92.11-1.85.16-2.77C592.87,68.18,566.71,45.26,530.55,40.35ZM733.28,149.13l3-2.77c-3.17-5.68-7-11.12-9.32-17.13-2.21-5.7-2.86-12-4.2-18l2.48-1.76C707.79,99.78,690.41,90.1,673,80.57c-1.33-.72-3.65-1.12-4.82-.45-7.3,4.17-14.41,8.68-22.07,13.38,7.41,7,14.55,13.28,21.16,20.09,4,4.11,7.92,6.13,14,5.78,16.61-.94,31.18,4.07,42.14,17.3C726.74,140.76,730,145,733.28,149.13ZM327.34,758.31c-5.73,5.23-11.59,10.18-16.86,15.68-1.34,1.39-1.09,4.58-1.08,6.94,0,8.78,1.89,17.92,0,26.23-2,8.66.05,14.8,4.87,21.33L352.35,817C343.72,796.76,335.58,777.66,327.34,758.31Zm569.75-326c11.58,12.12,8.81,24.45,1,35-7.47,10.1-17,18.79-26.33,27.36-4.65,4.27-10.83,6.88-16.32,10.25-.1.82-.2,1.63-.29,2.45,3.84,1.14,7.78,3.5,11.5,3.2,13.33-1.07,26.56-3.27,39.88-4.55,5.45-.53,6.11-3.87,6.14-7.89.07-13.09.22-26.18-.12-39.26-.23-9.12-1.22-18.21-1.9-27.78ZM709.38,165.36c-1.88-9.68-6.92-15.27-15.19-18.16-13-4.56-21.92-.34-30.23,13.24s-17.42,26.78-26,40.27c-1.46,2.31-1.93,5.26-3.77,10.52,12.06-6.2,18.27-3.69,21.6,6.56,1.08,3.32,4.24,6,6.33,8.76,7.81-3.76,5.35-8.22,3-13-13.62-27.3,10.33-51.55,35.12-49.2C703.08,164.6,706,165,709.38,165.36ZM401.29,194.91c0-12.61-.73-23.07.2-33.38S405,140.78,406.94,130l-20.88-2.71c5.87,13.75,3.14,25.21-3.11,36.41-6.1,10.94-14.79,18.64-26.9,24Zm332,529.7-52.13-13c2.56,9.67,4.69,17.58,6.76,25.5,1.65,6.29,2.92,12.7,4.93,18.87,1.58,4.81,4.94,6.43,9.63,3.2C715.09,750.53,726.57,740.88,733.31,724.61ZM486.45,124.28c18.15-5,18.6-5.52,18.86-22.12.22-13.5,2.53-26.34,11.95-36.9l-30.81-10.1ZM256.89,867.85A389.49,389.49,0,0,0,359,909.63c-11.05-9.64-22.59-18.38-34-27.32-5.83-4.57-10.7-11.64-19.59-5.15-1.2.88-4.17.12-6-.68-7.28-3.29-15.78-5.47-21.3-10.71C269.65,857.71,264.35,862.26,256.89,867.85ZM367,111.17c14.85,3.38,27.65,6.42,40.53,9.09,1.46.3,4.51-1.09,4.86-2.27,2.84-9.72,5.21-19.57,8-30.5-11.55,2.29-20.85,5.74-30.09,5.56C378.31,92.83,374,100.26,367,111.17ZM179.87,712.75,220.36,774c-3.13-23.43-5.89-44.13-8.75-65.51ZM368.92,91.34c-13.83-6.77-19.38-16.66-14.15-31.1-20.72,3.31-41.94,15.16-52.66,29.14,21.94-5.39,45.07-17.55,58.57,14.09ZM760,390.49l-1.77-2.91a15.38,15.38,0,0,0-2.58-.41c-14.62.13-29.28.54-42.11-8.41a6.39,6.39,0,0,0-3.44-.67c-12.8,0-25.6,0-38.4,0l-1.38,3.15c4,3.48,7.61,7.54,12.06,10.26,3.65,2.24,8.64,4.71,12.4,3.95a166.54,166.54,0,0,1,58.55-1.81C755.3,393.92,757.72,391.59,760,390.49ZM581.44,44.57l-.32,1.23c16.71,12.21,33.39,24.48,50.2,36.54a7,7,0,0,0,5.65.9c6.82-2.74,13.43-6,20.12-9,.07-1,.13-1.94.19-2.9ZM684.55,866.89l-.18-3.32c-5.71-1.67-13.7-6.59-16.74-4.45-13.11,9.18-24.78,20.43-37,30.93l1.27,2Zm-400-697.17-1.51-2-35.47,14.05,13.34,17.94ZM473,169.57l-2.33-.61-17.37,31.95h18C471.85,190.05,472.41,179.81,473,169.57ZM614.45,365.83l1.59,2.5,21.86-1.22c-.34-6.58-.61-12-.88-17.35l-2.74-1.36Zm35.67,272.79-1.62-.35c-4.14,16-8.43,32-12.15,48.05-.34,1.44,3,3.74,4.78,5.71C644.36,672.86,647.24,655.74,650.12,638.62Zm-2.94-271.26,18.44-.92,1-2.46c-9.65.77-11.47-5.46-13.13-12.09-.4-1.6-2-2.9-3.13-4.33-1.06,1.53-2.9,3-3,4.61C646.91,356.8,647.18,361.49,647.18,367.36ZM533.92,91.81v18.87l13.22-2.38Zm-228.2,67.62c16.8,7.45,16.8,7.45,18.1-3.1ZM132.83,502.8l-11-15.18C120.47,503.52,120.9,504.08,132.83,502.8Zm448.42-235,11.38-2.92-6.57-11.48-2.1.35C583.17,257.78,582.39,261.85,581.25,267.77Z"/><path d="M194,400.31c9.83-.42,17.41,3.24,24.58,9.53,4.36,3.84,10.42,5.67,15.17,9.16,8.26,6.07,17.82,11.45,23.69,19.43,8.85,12,0,25.84-15,25.28-18.82-.71-35.43-5.29-42.8-25.64-.86-2.39-4.7-4.86-7.42-5.19-10.14-1.25-15.31-8.77-20.84-15.62-4.29-5.33-2.78-10.51,3.68-12.71C181.1,402.48,187.63,401.67,194,400.31Z"/><path d="M542.24,152.75c14.6-.11,21.58,4.38,23.63,13.19,2.1,9.06-2.37,17.57-12.21,22.34s-20,5.95-30.23,1.88c-8-3.21-13.37-9.35-12.57-18.54.78-9,6.19-14.71,15-16.5C532.28,153.82,538.81,153.23,542.24,152.75Z"/></g></g></svg>